<svg xmlns="http://www.w3.org/2000/svg" width="20" height="12.223" viewBox="0 0 20 12.223"><defs><style>.a{fill:#424242;}</style></defs><g transform="translate(-623 -179)"><path class="a" d="M642.97,184.779a9.568,9.568,0,0,0-2.2-2.9A11.158,11.158,0,0,0,633,179c-6.675,0-9.921,5.688-9.953,5.746a.372.372,0,0,0,0,.352c.032.061,3.277,6.125,9.958,6.125a10.817,10.817,0,0,0,9.973-6.157A.375.375,0,0,0,642.97,184.779Zm-6.213-4.45a.343.343,0,0,0,.04.08,4.769,4.769,0,0,1,1.018,2.961,4.815,4.815,0,0,1-9.63,0,4.772,4.772,0,0,1,.941-2.86c.007-.009.008-.02.014-.03a10.273,10.273,0,0,1,3.859-.74A11.663,11.663,0,0,1,636.757,180.329ZM633,190.482c-5.6,0-8.623-4.582-9.2-5.55a12.088,12.088,0,0,1,4.158-3.888,5.554,5.554,0,1,0,9.971-.237,9.521,9.521,0,0,1,4.293,4.123A10.053,10.053,0,0,1,633,190.482Z" transform="translate(0 0)"/><path class="a" d="M645.593,189.185a2.593,2.593,0,1,0-1.77-4.487.37.37,0,0,0-.012.53l1.327,1.351a.37.37,0,0,0,.529-.519l-1.033-1.053a1.852,1.852,0,1,1-.892,1.584.37.37,0,1,0-.741,0A2.6,2.6,0,0,0,645.593,189.185Z" transform="translate(-12.592 -3.148)"/></g></svg>